<svg width="344" height="120" viewBox="0 0 344 120" xmlns="http://www.w3.org/2000/svg" role="img" aria-label="EduFunds"><g transform="translate(16,16)"><rect width="88" height="88" rx="22" fill="#ffffff" fill-opacity="0.06" stroke="#ffffff" stroke-opacity="0.18"/><path d="M62 27 A23 23 0 1 0 62 73" fill="none" stroke="#FFFFFF" stroke-width="7" stroke-linecap="round"/><path d="M26 58 L40 46 L52 53 L68 35" fill="none" stroke="#CBA32A" stroke-width="7" stroke-linecap="round" stroke-linejoin="round"/><path d="M58 33 L70 32 L69 44" fill="none" stroke="#CBA32A" stroke-width="7" stroke-linecap="round" stroke-linejoin="round"/></g><path d="M129.28 72.0V42.8H135.66V72.0ZM134.86 72.0V66.56H147.64V72.0ZM134.86 59.879999999999995V54.44H146.7V59.879999999999995ZM134.86 48.239999999999995V42.8H147.36V48.239999999999995Z M161.7 72.72Q159.39 72.72 157.48499999999999 71.88Q155.57999999999998 71.04 154.19 69.535Q152.79999999999998 68.03 152.04999999999998 66.0Q151.29999999999998 63.97 151.29999999999998 61.59V60.69Q151.29999999999998 58.32 152.015 56.275000000000006Q152.73 54.230000000000004 154.065 52.695Q155.39999999999998 51.16 157.28499999999997 50.3Q159.17 49.44 161.48999999999998 49.44Q164.10999999999999 49.44 166.03499999999997 50.58Q167.95999999999998 51.72 169.045 53.94Q170.13 56.16 170.23 59.42L168.57 57.85V42.8H174.98999999999998V72.0H169.91V62.91H170.79Q170.69 66.04 169.51 68.24000000000001Q168.32999999999998 70.44 166.32999999999998 71.58Q164.32999999999998 72.72 161.7 72.72ZM163.29999999999998 67.38Q164.78 67.38 166.005 66.71000000000001Q167.23 66.04 167.98 64.755Q168.73 63.47 168.73 61.68V60.2Q168.73 58.45 167.95999999999998 57.255Q167.19 56.06 165.95999999999998 55.42Q164.73 54.78 163.29 54.78Q161.67999999999998 54.78 160.42 55.585Q159.16 56.39 158.44 57.815Q157.72 59.24 157.72 61.14Q157.72 63.04 158.445 64.44Q159.17 65.84 160.435 66.61Q161.7 67.38 163.29999999999998 67.38Z M188.18 72.7Q184.41 72.7 182.355 70.235Q180.29999999999998 67.77 180.29999999999998 62.79V50.09H186.72V63.129999999999995Q186.72 64.87 187.72 65.91499999999999Q188.72 66.96 190.41 66.96Q192.12 66.96 193.19 65.88499999999999Q194.26 64.81 194.26 62.97V50.09H200.68V72.0H195.6V62.75H196.01999999999998Q196.01999999999998 66.09 195.165 68.30000000000001Q194.31 70.51 192.635 71.605Q190.96 72.7 188.46 72.7Z" fill="#FFFFFF"/><path d="M206.96 72.0V42.8H213.52V72.0ZM212.72 60.26V54.82L223.98000000000002 54.81V60.25ZM212.72 48.239999999999995V42.8H224.48000000000002V48.239999999999995Z M236.38000000000002 72.7Q232.61 72.7 230.555 70.235Q228.5 67.77 228.5 62.79V50.09H234.92000000000002V63.129999999999995Q234.92000000000002 64.87 235.92000000000002 65.91499999999999Q236.92000000000002 66.96 238.61 66.96Q240.32000000000002 66.96 241.39000000000001 65.88499999999999Q242.46 64.81 242.46 62.97V50.09H248.88000000000002V72.0H243.8V62.75H244.22000000000003Q244.22000000000003 66.09 243.365 68.30000000000001Q242.51000000000002 70.51 240.83500000000004 71.605Q239.16000000000003 72.7 236.66000000000003 72.7Z M254.78000000000003 72.0V50.099999999999994H259.86V59.5H259.5Q259.5 56.129999999999995 260.375 53.89Q261.25 51.65 262.995 50.525Q264.74 49.4 267.27000000000004 49.4H267.55Q271.38 49.4 273.40999999999997 51.905Q275.44 54.41 275.44 59.47V72.0H269.02000000000004V59.12Q269.02000000000004 57.36 267.995 56.25Q266.97 55.14 265.19 55.14Q263.39000000000004 55.14 262.2950000000001 56.265Q261.20000000000005 57.39 261.20000000000005 59.24V72.0Z M289.90000000000003 72.72Q287.59000000000003 72.72 285.68500000000006 71.88Q283.78000000000003 71.04 282.39000000000004 69.535Q281.00000000000006 68.03 280.25000000000006 66.0Q279.50000000000006 63.97 279.50000000000006 61.59V60.69Q279.50000000000006 58.32 280.21500000000003 56.275000000000006Q280.93000000000006 54.230000000000004 282.26500000000004 52.695Q283.6 51.16 285.485 50.3Q287.37000000000006 49.44 289.69000000000005 49.44Q292.31000000000006 49.44 294.235 50.58Q296.16 51.72 297.245 53.94Q298.33000000000004 56.16 298.43000000000006 59.42L296.77000000000004 57.85V42.8H303.19000000000005V72.0H298.11V62.91H298.99Q298.89000000000004 66.04 297.71000000000004 68.24000000000001Q296.53000000000003 70.44 294.53000000000003 71.58Q292.53000000000003 72.72 289.90000000000003 72.72ZM291.50000000000006 67.38Q292.98 67.38 294.20500000000004 66.71000000000001Q295.43000000000006 66.04 296.18000000000006 64.755Q296.93000000000006 63.47 296.93000000000006 61.68V60.2Q296.93000000000006 58.45 296.1600000000001 57.255Q295.39000000000004 56.06 294.1600000000001 55.42Q292.93000000000006 54.78 291.49 54.78Q289.88000000000005 54.78 288.62 55.585Q287.36 56.39 286.64 57.815Q285.92 59.24 285.92 61.14Q285.92 63.04 286.64500000000004 64.44Q287.37000000000006 65.84 288.63500000000005 66.61Q289.90000000000003 67.38 291.50000000000006 67.38Z M317.30000000000007 72.7Q312.65000000000003 72.7 310.005 70.765Q307.36 68.83 307.19000000000005 65.35H312.89000000000004Q313.03000000000003 66.41 314.13500000000005 67.225Q315.24000000000007 68.04 317.42 68.04Q319.11 68.04 320.21500000000003 67.47Q321.32000000000005 66.9 321.32000000000005 65.81Q321.32000000000005 64.85 320.47 64.25999999999999Q319.62000000000006 63.67 317.47 63.46L315.75000000000006 63.28Q311.81000000000006 62.87 309.83000000000004 61.084999999999994Q307.85 59.3 307.85 56.49Q307.85 54.15 309.01 52.599999999999994Q310.17 51.05 312.22 50.254999999999995Q314.27000000000004 49.46 316.91 49.46Q321.14000000000004 49.46 323.74 51.315Q326.34000000000003 53.17 326.48 56.69H320.78000000000003Q320.65000000000003 55.620000000000005 319.67500000000007 54.870000000000005Q318.70000000000005 54.120000000000005 316.85 54.120000000000005Q315.36 54.120000000000005 314.485 54.68Q313.61 55.239999999999995 313.61 56.19Q313.61 57.12 314.37 57.599999999999994Q315.13000000000005 58.08 316.83000000000004 58.28L318.55000000000007 58.46Q322.59000000000003 58.879999999999995 324.83500000000004 60.69Q327.08000000000004 62.5 327.08000000000004 65.51Q327.08000000000004 67.72 325.88000000000005 69.33500000000001Q324.68000000000006 70.95 322.485 71.825Q320.29 72.7 317.30000000000007 72.7Z" fill="#CBA32A"/></svg>
